<?xml version="1.0" standalone="no"?>
<!DOCTYPE svg PUBLIC "-//W3C//DTD SVG 1.1//EN" "http://www.w3.org/Graphics/SVG/1.1/DTD/svg11.dtd" >
<svg xmlns="http://www.w3.org/2000/svg">
<metadata>Generated by IcoMoon</metadata>
<defs>
<font id="icomoon" horiz-adv-x="1024">
<font-face units-per-em="1024" ascent="960" descent="-64" />
<missing-glyph horiz-adv-x="1024" />
<glyph unicode="&#x20;" horiz-adv-x="512" d="" />
<glyph unicode="&#xe900;" glyph-name="teams" d="M544 896v-896l-480 109.268v699.317l480 87.415zM768 544v-305.951c-5.345-35.337-36.682-62.949-74.548-65.386l-5.452-0.175h-80v371.512h160zM960 480v-174.829c-5.6-37.020-39.726-65.561-80-65.561v0h-80v240.39h160zM448.5 627.856l-256.532-14.642v-54.853l96.266 3.497v-254.814l65.469-1.967 0.437 259.184 94.36 3.934v59.66zM880 704c28.581 0 54.991-15.248 69.282-40s14.291-55.248 0-80c-14.291-24.752-40.701-40-69.282-40s-54.991 15.248-69.282 40c-14.291 24.752-14.291 55.248 0 80s40.701 40 69.282 40zM676.571 768c50.514 0 91.429-40.914 91.429-91.429s-40.914-91.429-91.429-91.429c-27.429 0-51.886 12.114-68.571 31.086v120.686c16.686 18.971 41.143 31.086 68.571 31.086z" />
<glyph unicode="&#xe901;" glyph-name="add" d="M544 480v256h-64v-256h-256v-64h256v-256h64v256h256v64z" />
<glyph unicode="&#xe902;" glyph-name="articles--filled" d="M576 896c7.295 0.196 14.351-2.353 19.81-7.066l2.59-2.534 224-224c5.418-4.889 8.769-11.601 9.472-18.779l0.128-3.621v-576c0-33.74-26.108-61.381-59.224-63.824l-4.776-0.176h-512c-33.74 0-61.381 26.108-63.824 59.224l-0.176 4.776v768c0 33.74 26.108 61.381 59.224 63.824l4.776 0.176h320zM672 256h-320v-64h320v64zM672 448h-320v-64h320v64zM576 819.2v-179.2h179.2l-179.2 179.2z" />
<glyph unicode="&#xe903;" glyph-name="articles" d="M822.4 662.4l-224 224c-5.704 6.321-13.889 9.829-22.4 9.6h-320c-35.346 0-64-28.654-64-64v-768c0-35.346 28.654-64 64-64h512c35.346 0 64 28.654 64 64v576c0.229 8.511-3.279 16.696-9.6 22.4v0zM576 819.2l179.2-179.2h-179.2v179.2zM768 64h-512v768h256v-192c0-35.346 28.654-64 64-64h192v-512zM352 256h320v-64h-320v64zM352 448h320v-64h-320v64z" />
<glyph unicode="&#xe904;" glyph-name="askit--filled" d="M512.328 896l10.826-0.145c247.159-0.32 447.44-200.601 447.76-447.76v0-412.38c-0.159-19.426-15.953-35.091-35.38-35.090v0h-412.38c-162.634-4.14-314.717 80.258-397.253 220.453s-82.536 314.127 0 454.323c82.536 140.196 234.619 224.593 397.253 220.453zM526.395 252.854c-26.51 0-48-21.49-48-48s21.49-48 48-48c26.51 0 48 21.49 48 48s-21.49 48-48 48zM558.395 700.854h-48c-38.217 0.085-74.894-15.059-101.917-42.083s-42.168-63.7-42.083-101.917v-16h64v16c0 44.183 35.817 80 80 80h48c44.183 0 80-35.817 80-80s-35.817-80-80-80h-64v-144h64v80c79.529 0 144 64.471 144 144s-64.471 144-144 144z" />
<glyph unicode="&#xe905;" glyph-name="askit" d="M512.328 896l10.826-0.146c243.819-0.315 442.019-195.225 447.638-437.766l0.122-9.994v-412.38c-0.149-18.131-13.917-32.985-31.547-34.885l-3.833-0.205h-412.38c-162.634-4.14-314.717 80.258-397.253 220.453s-82.536 314.127 0 454.323c80.701 137.080 227.894 220.815 386.427 220.599zM511.089 831.999c-135.432-0.223-261.066-71.915-330.035-189.068-70.738-120.157-70.738-269.228 0-389.385 68.97-117.153 194.604-188.845 331.545-189.048l10.555 0.126 383.76 0.016v383.372c-0.27 208.617-166.724 378.277-374.833 383.714l-20.992 0.273zM526.395 252.854c26.51 0 48-21.49 48-48s-21.49-48-48-48c-26.51 0-48 21.49-48 48s21.49 48 48 48zM558.395 700.854c79.529 0 144-64.471 144-144s-64.471-144-144-144v0-80h-64v144h64c44.183 0 80 35.817 80 80s-35.817 80-80 80v0h-48c-44.183 0-80-35.817-80-80v0-16h-64v16c-0.085 38.217 15.059 74.894 42.083 101.917s63.7 42.168 101.917 42.083v0z" />
<glyph unicode="&#xe906;" glyph-name="calendar" d="M832 831.040h-128v64h-64v-64h-256v64h-64v-64h-128c-35.346 0-64-28.654-64-64v-640c0-35.346 28.654-64 64-64h640c35.346 0 64 28.654 64 64v640c0 35.346-28.654 64-64 64zM832 127.040h-640v448h640v-448zM832 639.040h-640v128h128v-64h64v64h256v-64h64v64h128v-128z" />
<glyph unicode="&#xe907;" glyph-name="checkmark--outline" d="M512 896c-247.424 0-448-200.576-448-448s200.576-448 448-448c247.424 0 448 200.576 448 448 0 118.817-47.2 232.768-131.216 316.784s-197.967 131.216-316.784 131.216zM512 64c-212.077 0-384 171.923-384 384s171.923 384 384 384c212.077 0 384-171.923 384-384s-171.923-384-384-384v0zM448 272l-160 158.72 50.88 50.24 109.12-108.16 237.12 235.2 50.88-50.56-288-285.44z" />
<glyph unicode="&#xe908;" glyph-name="checkmark" d="M416 281.6l-227.2 227.2-44.8-44.8 272-272 451.2 451.2-44.8 48z" />
<glyph unicode="&#xe909;" glyph-name="chevron--down" d="M512 256l-320 320 44.8 44.8 275.2-275.2 275.2 275.2 44.8-44.8z" />
<glyph unicode="&#xe90a;" glyph-name="chevron--left" d="M320 448l320 320 44.8-44.8-275.2-275.2 275.2-275.2-44.8-44.8z" />
<glyph unicode="&#xe90b;" glyph-name="chevron--right--outlined" d="M512 896c247.424 0 448-200.576 448-448s-200.576-448-448-448c-247.424 0-448 200.576-448 448s200.576 448 448 448zM512 832c-212.077 0-384-171.923-384-384s171.923-384 384-384c212.077 0 384 171.923 384 384s-171.923 384-384 384zM435.2 676.418l228.418-228.418-228.418-228.418-44.952 44.952 183.49 183.467-183.49 183.467 44.952 44.952z" />
<glyph unicode="&#xe90c;" glyph-name="chevron--right" d="M704 448l-320-320-44.8 44.8 275.2 275.2-275.2 275.2 44.8 44.8z" />
<glyph unicode="&#xe90d;" glyph-name="chevron--up" d="M512 640l320-320-44.8-44.8-275.2 275.2-275.2-275.2-44.8 44.8z" />
<glyph unicode="&#xe90e;" glyph-name="close--outline" d="M512 896c-249.6 0-448-198.4-448-448s198.4-448 448-448c249.6 0 448 198.4 448 448s-198.4 448-448 448zM512 64c-211.2 0-384 172.8-384 384s172.8 384 384 384c211.2 0 384-172.8 384-384s-172.8-384-384-384zM684.8 224l-172.8 172.8-172.8-172.8-51.2 51.2 172.8 172.8-172.8 172.8 51.2 51.2 172.8-172.8 172.8 172.8 51.2-51.2-172.8-172.8 172.8-172.8-51.2-51.2z" />
<glyph unicode="&#xe90f;" glyph-name="close" d="M768 659.2l-44.8 44.8-211.2-211.2-211.2 211.2-44.8-44.8 211.2-211.2-211.2-211.2 44.8-44.8 211.2 211.2 211.2-211.2 44.8 44.8-211.2 211.2z" />
<glyph unicode="&#xe910;" glyph-name="contacts--filled" d="M832 896c33.74 0 61.381-26.108 63.824-59.224l0.176-4.776v-768c0-33.74-26.108-61.381-59.224-63.824l-4.776-0.176h-576c-33.74 0-61.381 26.108-63.824 59.224l-0.176 4.776v128h-64v64h64v160h-64v64h64v160h-64v64h64v128c0 33.74 26.108 61.381 59.224 63.824l4.776 0.176h576zM672 352h-192c-53.019 0-96-42.981-96-96v-64h64v64c0 17.673 14.327 32 32 32h192c17.673 0 32-14.327 32-32v-64h64v64c0 53.019-42.981 96-96 96zM576 640c-70.692 0-128-57.308-128-128s57.308-128 128-128c70.692 0 128 57.308 128 128s-57.308 128-128 128zM576 576c35.346 0 64-28.654 64-64s-28.654-64-64-64c-35.346 0-64 28.654-64 64s28.654 64 64 64z" />
<glyph unicode="&#xe911;" glyph-name="contacts" d="M832 896c35.346 0 64-28.654 64-64v0-768c0-35.346-28.654-64-64-64v0h-576c-35.346 0-64 28.654-64 64v0 128h-64v64h64v160h-64v64h64v160h-64v64h64v128c0 35.346 28.654 64 64 64v0zM832 832h-576v-128h64v-64h-64v-160h64v-64h-64v-160h64v-64h-64v-128h576v768zM672 352c51.126 0 92.917-39.965 95.837-90.359l0.163-5.641v-64h-64v64c0 16.411-12.353 29.936-28.268 31.785l-3.732 0.215h-192c-16.411 0-29.936-12.353-31.785-28.268l-0.215-3.732v-64h-64v64c0 51.126 39.965 92.917 90.359 95.837l5.641 0.163h192zM576 640c70.692 0 128-57.308 128-128s-57.308-128-128-128c-70.692 0-128 57.308-128 128s57.308 128 128 128zM576 576c-35.346 0-64-28.654-64-64s28.654-64 64-64c35.346 0 64 28.654 64 64s-28.654 64-64 64z" />
<glyph unicode="&#xe912;" glyph-name="delete" d="M384 576h64v-384h-64v384zM576 576h64v-384h-64v384zM128 768v-64h64v-640c0-35.346 28.654-64 64-64h512c35.346 0 64 28.654 64 64v640h64v64h-768zM256 64v640h512v-640h-512zM384 896h256v-64h-256v64z" />
<glyph unicode="&#xe913;" glyph-name="email" d="M896 768h-768c-35.346 0-64-28.654-64-64v-512c0-35.346 28.654-64 64-64h768c35.346 0 64 28.654 64 64v512c0 35.346-28.654 64-64 64zM825.6 704l-313.6-216.96-313.6 216.96h627.2zM128 192v482.88l365.76-253.12c10.969-7.61 25.511-7.61 36.48 0l365.76 253.12v-482.88h-768z" />
<glyph unicode="&#xe914;" glyph-name="error" d="M64 448c0-247.424 200.576-448 448-448s448 200.576 448 448c0 247.424-200.576 448-448 448s-448-200.576-448-448zM804.8 200l-540.8 540.8c152.581 127.005 376.817 116.771 517.194-23.606s150.612-364.612 23.606-517.194zM263.68 154.88c-161.349 137.018-181.387 378.766-44.8 540.48l540.48-540.48c-143.104-120.919-352.576-120.919-495.68 0v0z" />
<glyph unicode="&#xe915;" glyph-name="feedback--filled" d="M832 832c70.692 0 128-57.308 128-128v-384c0-70.692-57.308-128-128-128h-154.88l-109.44-192-55.68 32v160h-320c-70.692 0-128 57.308-128 128v384c0 70.692 57.308 128 128 128h640zM576 448h-320v-64h320v64zM768 640h-512v-64h512v64z" />
<glyph unicode="&#xe916;" glyph-name="feedback" d="M567.68 0l-55.68 32 128 224h192c35.346 0 64 28.654 64 64v384c0 35.346-28.654 64-64 64h-640c-35.346 0-64-28.654-64-64v-384c0-35.346 28.654-64 64-64h288v-64h-288c-70.692 0-128 57.308-128 128v384c0 70.692 57.308 128 128 128h640c70.692 0 128-57.308 128-128v-384c0-70.692-57.308-128-128-128h-154.88l-109.44-192zM256 640h512v-64h-512v64zM256 448h320v-64h-320v64z" />
<glyph unicode="&#xe917;" glyph-name="filter--filled" d="M832 832c35.346 0 64-28.654 64-64v-114.88c-0.071-16.946-6.861-33.173-18.88-45.12l-237.12-237.12v-242.88c0-35.346-28.654-64-64-64h-128c-35.346 0-64 28.654-64 64v242.88l-237.12 237.12c-12.019 11.947-18.809 28.174-18.88 45.12v114.88c0 35.346 28.654 64 64 64h640z" />
<glyph unicode="&#xe918;" glyph-name="filter" d="M576 64h-128c-35.346 0-64 28.654-64 64v242.88l-237.12 237.12c-12.019 11.947-18.809 28.174-18.88 45.12v114.88c0 35.346 28.654 64 64 64h640c35.346 0 64-28.654 64-64v-114.88c-0.071-16.946-6.861-33.173-18.88-45.12l-237.12-237.12v-242.88c0-35.346-28.654-64-64-64zM192 768v-114.88l256-256v-269.12h128v269.12l256 256v114.88h-640z" />
<glyph unicode="&#xe919;" glyph-name="home-filled" d="M528.237 891.559l3.283-2.279 460.48-359.040-39.68-50.24-56.32 43.84v-395.84c0-33.74-26.108-61.381-59.224-63.824l-4.776-0.176h-224v288c0 17.673-14.327 32-32 32v0h-128c-17.673 0-32-14.327-32-32v0-288h-224c-35.346 0-64 28.654-64 64v396.16l-56.32-44.16-39.68 50.56 459.84 358.72c10.573 8.355 25.104 9.114 36.397 2.279z" />
<glyph unicode="&#xe91a;" glyph-name="home" d="M531.52 889.28c-11.63 9.19-28.050 9.19-39.68 0l-459.84-358.72 39.68-50.56 56.32 44.16v-396.16c0-35.346 28.654-64 64-64h640c35.346 0 64 28.654 64 64v395.84l56.32-43.84 39.68 50.24-460.48 359.040zM576 128h-128v256h128v-256zM640 128v256c0 35.346-28.654 64-64 64h-128c-35.346 0-64-28.654-64-64v-256h-192v446.080l320 249.28 320-249.6v-445.76h-192z" />
<glyph unicode="&#xe91b;" glyph-name="information" d="M544 256v288h-128v-64h64v-224h-96v-64h256v64h-96zM512 736c-26.51 0-48-21.49-48-48s21.49-48 48-48c26.51 0 48 21.49 48 48s-21.49 48-48 48v0zM512 0c-247.424 0-448 200.576-448 448s200.576 448 448 448c247.424 0 448-200.576 448-448s-200.576-448-448-448v0zM512 832c-212.077 0-384-171.923-384-384s171.923-384 384-384c212.077 0 384 171.923 384 384s-171.923 384-384 384z" />
<glyph unicode="&#xe91c;" glyph-name="overflow-menu--horizontal" d="M192 384c35.346 0 64 28.654 64 64s-28.654 64-64 64c-35.346 0-64-28.654-64-64s28.654-64 64-64zM512 384c35.346 0 64 28.654 64 64s-28.654 64-64 64c-35.346 0-64-28.654-64-64s28.654-64 64-64zM832 384c35.346 0 64 28.654 64 64s-28.654 64-64 64c-35.346 0-64-28.654-64-64s28.654-64 64-64z" />
<glyph unicode="&#xe91d;" glyph-name="overflow-menu--vertical" d="M512 704c35.346 0 64 28.654 64 64s-28.654 64-64 64c-35.346 0-64-28.654-64-64s28.654-64 64-64zM512 384c35.346 0 64 28.654 64 64s-28.654 64-64 64c-35.346 0-64-28.654-64-64s28.654-64 64-64zM512 64c35.346 0 64 28.654 64 64s-28.654 64-64 64c-35.346 0-64-28.654-64-64s28.654-64 64-64z" />
<glyph unicode="&#xe91e;" glyph-name="PDF--file" d="M448 896.001c8.506 0.049 16.681-3.291 22.72-9.281v0l224-224c5.99-6.039 9.329-14.214 9.281-22.72v0-128h-64.001v64h-192c-35.346 0-64 28.654-64 64v0 192h-256v-768h512v64h64.001v-64c0-35.346-28.654-64-64.001-64v0h-512c-35.346 0-64 28.654-64 64v0 768c0 35.346 28.654 64.001 64 64.001v0zM960 496v-64h-128v-64h96v-64h-96v-160h-64v352h192zM384 496c33.74 0 61.381-26.108 63.824-59.224l0.176-4.776v-96c0-33.74-26.108-61.381-59.224-63.824l-4.776-0.176h-96v-96h-64v320h160zM608 496c70.692 0 128-57.308 128-128v-64c0-70.692-57.308-128-128-128h-128v320h128zM608 432h-64v-192h64c13.537 0 26.093 4.203 36.434 11.376 16.658 11.555 27.566 30.816 27.566 52.624v64c0 35.346-28.654 64-64 64zM384 432h-96v-96h96v96zM448 818.88v-178.88h178.88l-178.88 178.88z" />
<glyph unicode="&#xe91f;" glyph-name="pictogram--reject" d="M672 917.333c8.491 0 16.64-3.317 22.656-9.178 6.016-5.903 9.365-13.871 9.344-22.194v0l-0.555-223.424c0.064-43.867 0.107-84.105 0.128-121.171 154.048-5.34 277.76-129.202 277.76-281.099 0-155.276-129.195-281.6-288-281.6-79.829 0-152.149 31.956-204.352 83.437v0h-414.315c-17.664 0-32 13.997-32 31.289v0 631.827c0 6.925 2.325 13.621 6.656 19.107v0l126.763 160.825c6.059 7.676 15.445 12.182 25.344 12.182v0zM693.333 479.289c-123.52 0-224-98.247-224-219.022s100.48-219.022 224-219.022c123.52 0 224 98.247 224 219.022s-100.48 219.022-224 219.022zM259.477 854.756h-42.304l-110.507-140.195v-589.879h334.4c-22.741 40.258-35.733 86.462-35.733 135.585 0 137.296 101.056 251.792 234.24 276.489-0.021 38.36-0.064 80.079-0.128 125.781v0 0.125l0.469 192.093h-318.101c0.512-2.211 0.832-4.485 0.832-6.863v0-137.212c0-17.271-14.336-31.289-32-31.289v0h-85.333c-17.664 0-32 14.017-32 31.289 0 17.292 14.336 31.289 32 31.289v0h53.333v105.923c0 2.378 0.32 4.652 0.832 6.863v0zM766.701 376.265c12.501 12.203 32.768 12.203 45.248 0 12.501-12.224 12.501-32.040 0-44.263v0l-73.365-71.735 73.365-71.735c12.501-12.224 12.501-32.040 0-44.263-6.251-6.112-14.421-9.157-22.613-9.157s-16.384 3.045-22.635 9.157v0l-73.365 71.756-73.387-71.756c-6.251-6.112-14.421-9.157-22.613-9.157s-16.384 3.045-22.635 9.157c-12.501 12.224-12.501 32.040 0 44.263v0l73.387 71.735-73.387 71.735c-12.501 12.224-12.501 32.040 0 44.263 12.501 12.203 32.768 12.203 45.248 0v0l73.387-71.756zM383.021 469.562c17.664 0 32-13.997 32-31.289s-14.336-31.289-32-31.289h-170.667c-17.664 0-32 13.997-32 31.289s14.336 31.289 32 31.289h170.667zM534.313 625.763c17.664 0 32-13.997 32-31.289s-14.336-31.289-32-31.289h-321.963c-17.664 0-32 13.997-32 31.289s14.336 31.289 32 31.289h321.963z" />
<glyph unicode="&#xe920;" glyph-name="pictogram--success" d="M270.136 847.34c14.583 8.831 33.543 4.258 42.518-10.254s4.621-33.557-9.764-42.708c-153.591-95.262-225.456-281.055-176.046-455.133s208.099-294.185 388.74-294.224c61.974-0.221 123.151 13.999 178.696 41.539v0h1.037c9.961 4.934 21.794 4.17 31.040-2.006s14.501-16.825 13.786-27.935c-0.715-11.11-7.293-20.994-17.254-25.929-223.961-115.666-499.126-32.223-621.472 188.46s-47.643 498.822 168.72 628.19zM515.584 917.333c191.624-0.204 363.608-117.857 433.558-296.592s23.619-382.149-116.798-512.789c-5.58-5.373-12.992-8.417-20.73-8.515-12.717 0.167-24.050 8.075-28.615 19.968s-1.442 25.371 7.885 34.033c121.695 113.377 161.736 289.818 100.936 444.766s-210.056 256.831-376.235 256.822c-36.427 0.119-72.699-4.773-107.798-14.539-10.739-2.968-22.243 0.029-30.178 7.863s-11.096 19.314-8.292 30.116c2.804 10.802 11.147 19.284 21.886 22.252 40.534 11.082 82.367 16.67 124.382 16.616zM728.408 678.078c8.136 1.287 16.447-0.735 23.088-5.616 7.338-4.732 12.336-12.353 13.758-20.98s-0.865-17.453-6.295-24.297v0l-289.213-396.354-1.635-1.586c-0.569-0.674-1.193-1.3-1.866-1.869-1.144-0.972-2.396-1.808-3.731-2.492-0.659-0.627-1.434-1.121-2.28-1.454-1.538-0.748-3.132-1.373-4.768-1.869v0h-2.073c-2.714-0.646-5.513-0.857-8.292-0.623-3.236-0.026-6.455 0.465-9.536 1.454v0l-3.317 1.869c-1.895 0.689-3.703 1.595-5.39 2.7v0l-147.6 110.908c-8.888 6.678-13.544 17.599-12.215 28.65s8.441 20.551 18.657 24.923c10.216 4.372 21.985 2.952 30.872-3.726v0l122.102-91.177 269.495 369.071c4.817 6.694 12.102 11.183 20.238 12.47z" />
<glyph unicode="&#xe921;" glyph-name="pictogram-approve" d="M672 917.333c8.491 0 16.64-3.317 22.656-9.178 6.016-5.903 9.365-13.871 9.344-22.194v0l-0.555-223.424c0.064-43.867 0.107-84.105 0.128-121.171 154.048-5.34 277.76-129.202 277.76-281.099 0-155.276-129.195-281.6-288-281.6-79.829 0-152.149 31.956-204.352 83.437v0h-414.315c-17.664 0-32 13.997-32 31.289v0 631.827c0 6.925 2.325 13.621 6.656 19.107v0l126.763 160.825c6.059 7.676 15.445 12.182 25.344 12.182v0zM693.333 479.289c-123.52 0-224-98.247-224-219.022s100.48-219.022 224-219.022c123.52 0 224 98.247 224 219.022s-100.48 219.022-224 219.022zM259.477 854.756h-42.304l-110.507-140.195v-589.879h334.4c-22.741 40.258-35.733 86.462-35.733 135.585 0 137.296 101.056 251.792 234.24 276.489-0.021 38.36-0.064 80.079-0.128 125.781v0 0.125l0.469 192.093h-318.101c0.512-2.211 0.832-4.485 0.832-6.863v0-137.212c0-17.271-14.336-31.289-32-31.289v0h-85.333c-17.664 0-32 14.017-32 31.289 0 17.292 14.336 31.289 32 31.289v0h53.333v105.923c0 2.378 0.32 4.652 0.832 6.863v0zM775.008 363.236c10.987 13.496 31.147 15.707 44.949 4.923s16.085-30.475 5.035-43.971v0l-135.701-166.186c-0.96-1.168-2.091-2.065-3.157-3.066-0.085-0.083-0.107-0.188-0.192-0.271s-0.192-0.104-0.277-0.188c-2.603-2.295-5.461-4.193-8.555-5.528-1.792-0.855-3.627-1.356-5.525-1.856-0.299-0.063-0.576-0.104-0.875-0.146-2.453-0.584-4.864-1.398-7.36-1.398-8.213 0-16.405 3.066-22.656 9.199v0l-76.693 75.302c-12.48 12.265-12.437 32.082 0.085 44.263s32.768 12.14 45.248-0.083v0l51.605-50.688zM383.021 469.562c17.664 0 32-13.997 32-31.289s-14.336-31.289-32-31.289h-170.667c-17.664 0-32 13.997-32 31.289s14.336 31.289 32 31.289h170.667zM534.313 625.763c17.664 0 32-13.997 32-31.289s-14.336-31.289-32-31.289h-321.963c-17.664 0-32 13.997-32 31.289s14.336 31.289 32 31.289h321.963z" />
<glyph unicode="&#xe922;" glyph-name="search" d="M960 45.12l-241.6 242.88c119.979 144.763 105.007 358.259-34 484.861s-352.97 121.608-485.919-11.342c-132.95-132.95-137.943-346.912-11.342-485.919s340.098-153.979 484.861-34l242.88-241.6 45.12 45.12zM160 512c0 159.058 128.942 288 288 288s288-128.942 288-288c0-159.058-128.942-288-288-288s-288 128.942-288 288z" />
<glyph unicode="&#xe923;" glyph-name="send--filled" d="M878.4 476.48l-704 352c-11.271 5.637-24.801 4.133-34.56-3.84-9.306-7.799-13.396-20.194-10.56-32l84.8-312.64h361.92v-64h-361.92l-86.080-311.68c-2.646-9.803-0.483-20.279 5.829-28.232s16.024-12.439 26.171-12.088c5.009 0.030 9.942 1.236 14.4 3.52l704 352c10.687 5.475 17.409 16.472 17.409 28.48s-6.722 23.005-17.409 28.48z" />
<glyph unicode="&#xe924;" glyph-name="settings--adjust" d="M960 736h-163.2c-15.142 74.57-80.708 128.16-156.8 128.16s-141.658-53.59-156.8-128.16h-419.2v-64h419.2c15.142-74.57 80.708-128.16 156.8-128.16s141.658 53.59 156.8 128.16h163.2v64zM640 608c-53.019 0-96 42.981-96 96s42.981 96 96 96c53.019 0 96-42.981 96-96s-42.981-96-96-96v0zM64 160h163.2c15.142-74.57 80.708-128.16 156.8-128.16s141.658 53.59 156.8 128.16h419.2v64h-419.2c-15.142 74.57-80.708 128.16-156.8 128.16s-141.658-53.59-156.8-128.16h-163.2v-64zM288 192c0 53.019 42.981 96 96 96s96-42.981 96-96c0-53.019-42.981-96-96-96s-96 42.981-96 96z" />
<glyph unicode="&#xe925;" glyph-name="star--filled" d="M512 896l-145.6-295.040-325.44-47.040 235.52-229.76-55.68-324.16 291.2 152.96 291.2-152.96-55.68 324.16 235.52 229.44-325.44 47.36z" />
<glyph unicode="&#xe926;" glyph-name="star" d="M512 751.36l88.32-178.56 14.72-32 32-4.8 197.12-28.48-140.16-137.6-24-23.36 5.76-32 33.6-196.16-176.32 92.48-31.040 13.12-29.76-15.68-176.32-91.2 32 196.16 5.76 32-23.68 24.64-141.44 139.2 229.12 33.28 14.72 32 89.6 176.96zM512 896l-145.6-295.040-325.44-47.040 235.52-229.76-55.68-324.16 291.2 152.96 291.2-152.96-55.68 324.16 235.52 229.44-325.44 47.36-145.6 295.040z" />
<glyph unicode="&#xe927;" glyph-name="subtract" d="M224 480h576v-64h-576z" />
<glyph unicode="&#xe928;" glyph-name="thumbs-down--filled" d="M536.32 32c61.912 6.501 107.381 60.379 104.165 121.831l-0.485 6.169v160h216.32c63.624 0 101.204 59.325 103.562 121.749l0.118 6.251v192c0 114.946-48.348 251.587-276.805 255.895l-11.195 0.105h-416v-384l113.28-235.84 32-206.72c4.638-20.104 6.091-35.419 24.555-37.255l3.925-0.185h106.56zM192 512v384h-128v-384h128z" />
<glyph unicode="&#xe929;" glyph-name="thumbs-down" d="M856.32 288c63.976 6.718 110.394 64.024 103.68 128v192c0 116.8-49.92 256-288 256h-608v-448h206.72l113.28-171.84 32-202.88v-3.84c4.947-21.445 23.76-36.837 45.76-37.44h50.24c8.078-0.96 16.242-0.96 24.32 0 63.976 6.718 110.394 64.024 103.68 128v160h192c8.078-0.96 16.242-0.96 24.32 0v0zM256 480h-128v320h128v-320zM896 416c0-46.080-17.92-64-64-64h-256v-224c0-46.080-17.92-64-64-64h-36.16l-4.48 32-23.36 171.84-128 189.76v342.4h352c152.96 0 224-61.12 224-192v-192z" />
<glyph unicode="&#xe92a;" glyph-name="thumbs-up--filled" d="M536.32 896c61.912-6.501 107.381-60.379 104.165-121.831l-0.485-6.169v-160h216.32c63.624 0 101.204-59.325 103.562-121.749l0.118-6.251v-192c0-114.946-48.348-251.587-276.805-255.895l-11.195-0.105h-416v384l113.28 235.84 32 206.72c4.638 20.104 6.091 35.419 24.555 37.255l3.925 0.185h106.56zM192 416v-384h-128v384h128z" />
<glyph unicode="&#xe92b;" glyph-name="thumbs-up" horiz-adv-x="1056" d="M832 608h-192v160c6.714 63.976-39.704 121.282-103.68 128-8.078 0.96-16.242 0.96-24.32 0h-50.24c-22-0.603-40.813-15.995-45.76-37.44v-3.84l-32-202.88-113.28-171.84h-206.72v-448h608c238.080 0 288 139.2 288 256v192c6.714 63.976-39.704 121.282-103.68 128-8.078 0.96-16.242 0.96-24.32 0v0zM256 96h-128v320h128v-320zM896 288c0-130.88-71.040-192-224-192h-352v342.4l128 189.76 23.36 171.84 4.48 32h36.16c46.080 0 64-17.92 64-64v-224h256c46.080 0 64-17.92 64-64v-192z" />
<glyph unicode="&#xe92c;" glyph-name="volume--down--filled" d="M803.2 618.88l-48.64-42.88c62.428-74.027 59.959-182.958-5.76-254.080l47.040-43.52c87.594 94.927 90.75 240.239 7.36 338.88v1.6zM640 0c-8.552 0.036-16.734 3.493-22.72 9.6l-243.84 246.4h-213.44c-17.673 0-32 14.327-32 32v320c0 17.673 14.327 32 32 32h213.44l243.84 246.4c12.481 12.407 32.639 12.407 45.12 0 6.029-5.908 9.48-13.959 9.6-22.4v-832c0-17.673-14.327-32-32-32v0z" />
<glyph unicode="&#xe92d;" glyph-name="volume--up--filled" d="M869.12 701.44l-48.96-41.28c104.073-123.281 100.095-304.757-9.28-423.36l47.040-44.8c131.344 142.326 136.146 360.185 11.2 508.16v1.28zM690.56 576c62.428-74.027 59.959-182.958-5.76-254.080l47.040-43.52c87.594 94.927 90.75 240.239 7.36 338.88l-48.64-41.28zM576 0c-8.552 0.036-16.734 3.493-22.72 9.6l-243.84 246.4h-213.44c-17.673 0-32 14.327-32 32v320c0 17.673 14.327 32 32 32h213.44l243.84 246.4c12.481 12.407 32.639 12.407 45.12 0 6.029-5.908 9.48-13.959 9.6-22.4v-832c0-17.673-14.327-32-32-32v0z" />
<glyph unicode="&#xe92e;" glyph-name="warning--alt" d="M512 256c-26.51 0-48-21.49-48-48s21.49-48 48-48c26.51 0 48 21.49 48 48s-21.49 48-48 48zM480 608h64v-288h-64v288zM928 32h-832c-11.184-0.023-21.569 5.794-27.39 15.344s-6.235 21.446-1.090 31.376l416 800c5.475 10.687 16.472 17.409 28.48 17.409s23.005-6.722 28.48-17.409l416-800c5.145-9.931 4.731-21.827-1.090-31.376s-16.206-15.367-27.39-15.344zM148.8 96h726.4l-363.2 698.56-363.2-698.56z" />
<glyph unicode="&#xe92f;" glyph-name="warning" d="M512 896c-247.424 0-448-200.576-448-448s200.576-448 448-448c247.424 0 448 200.576 448 448 0 118.817-47.2 232.768-131.216 316.784s-197.967 131.216-316.784 131.216zM512 64c-212.077 0-384 171.923-384 384s171.923 384 384 384c212.077 0 384-171.923 384-384s-171.923-384-384-384v0zM480 704h64v-352h-64v352zM512 256c-26.51 0-48-21.49-48-48s21.49-48 48-48c26.51 0 48 21.49 48 48s-21.49 48-48 48z" />
<glyph unicode="&#xe930;" glyph-name="pictogram--empty-state" d="M501.435 725.112c6.354 2.882 13.636 2.882 19.99 0v0l348.729-157.577c8.858-4.008 14.485-12.926 14.199-22.7v0-379.837c0.003-9.573-5.585-18.262-14.281-22.204v0l-348.729-158.1c-0.895-0.41-1.812-0.769-2.746-1.074v0l-0.851-0.22c-0.747-0.218-1.507-0.383-2.279-0.496v0l-0.906-0.138c-1.019-0.143-2.046-0.22-3.075-0.22-1.038 0-2.073 0.080-3.103 0.22v0l-0.879 0.138c-0.769 0.113-1.532 0.278-2.279 0.496v0l-0.851 0.22c-0.991 0.3-1.963 0.658-2.911 1.074v0l-347.575 158.1c-8.677 3.961-14.251 12.639-14.251 22.204v0 380.333c0.165 0.771 0.165 1.515 0.165 2.259v0 0.771c0.107 0.749 0.255 1.496 0.439 2.231-0.011 0.174-0.011 0.35 0 0.523 0.217 0.934 0.492 1.854 0.824 2.755v0l0.275 0.579c0.275 0.661 0.796 1.68 0.906 1.928s0.027 0.138 0.384 0.744c0.357 0.606 1.016 1.57 1.126 1.763s0.384 0.386 0.384 0.579c1.101 1.521 2.372 2.904 3.789 4.132v0l0.522 0.413c0.555 0.455 1.131 0.876 1.73 1.267v0l0.384 0.275 0.357 0.22c0.577 0.358 1.181 0.689 1.785 0.992v0l0.741 0.386h0.247zM837.915 517.818l-302.587-136.916v-328.538l302.587 136.916v328.538zM186.188 517.818v-328.55l302.587-136.905v328.55l-302.587 136.905zM267.611 445.911l160.021-69.203c12.455-5.342 18.011-19.3 12.41-31.179-5.643-11.895-20.278-17.154-32.702-11.791l-160.046 69.214c-12.438 5.35-17.972 19.305-12.363 31.168s20.241 17.141 32.68 11.791zM499.889 680.727l-290.425-127.973 290.398-128.027 291.501 128.215-291.474 127.785zM743.144 873.847c9.143-7.671 10.904-20.875 4.495-30.606l-1.626-2.182-59.845-71.311c-8.264-9.847-22.944-11.131-32.792-2.869-9.846 8.261-11.131 22.939-2.871 32.785l59.847 71.313c8.264 9.847 22.944 11.131 32.792 2.869zM280.96 873.847c9.848 8.262 24.529 6.978 32.792-2.869v0l59.845-71.311c8.263-9.849 6.978-24.527-2.869-32.788s-24.529-6.978-32.792 2.869v0l-59.845 71.311c-8.263 9.849-6.978 24.527 2.869 32.788zM512.052 913.455c12.855 0 23.276-10.421 23.276-23.276v-93.084c0-12.855-10.421-23.276-23.276-23.276s-23.276 10.421-23.276 23.276v93.084c0 12.855 10.421 23.276 23.276 23.276z" />
<glyph unicode="&#xe931;" glyph-name="pictogram--warning" d="M306.613 848.877c9.247-14.951 4.761-34.574-10.060-44.002-158.245-98.149-232.288-289.572-181.381-468.925s214.405-303.1 400.52-303.14c60.096-0.215 119.464 12.751 173.953 37.933l10.158 4.864h1.068c10.263 5.084 22.454 4.296 31.98-2.067s14.941-17.334 14.203-28.781c-0.737-11.447-7.514-21.63-17.777-26.714-230.748-119.171-514.251-33.199-640.305 194.17s-49.087 513.937 173.833 647.227c15.025 9.098 34.559 4.387 43.806-10.564zM515.693 931.555c197.43-0.211 374.627-121.428 446.696-305.58s24.334-393.729-120.337-528.328c-5.749-5.536-13.385-8.672-21.359-8.773-13.102 0.172-24.779 8.32-29.482 20.573s-1.486 26.14 8.124 35.064c125.382 116.812 166.638 298.6 103.994 458.243s-216.421 264.614-387.636 264.605c-37.531 0.122-74.902-4.918-111.065-14.979-11.065-3.058-22.917 0.030-31.092 8.101s-11.432 19.899-8.543 31.028c2.889 11.129 11.485 19.869 22.549 22.927 41.762 11.417 84.863 17.175 128.152 17.119zM512 243.2c21.208 0 38.4-17.192 38.4-38.4s-17.192-38.4-38.4-38.4c-21.208 0-38.4 17.192-38.4 38.4s17.192 38.4 38.4 38.4zM512 755.2c21.208 0 38.4-17.192 38.4-38.4v-358.4c0-21.208-17.192-38.4-38.4-38.4s-38.4 17.192-38.4 38.4v358.4c0 21.208 17.192 38.4 38.4 38.4z" />
</font>
</defs>
</svg>
